STARTFONT 2.1
FONT -misc-trigon-medium-r-normal--15-108-100-100-c-80-ISO10646-1
SIZE 15 100 100
FONTBOUNDINGBOX 8 15 0 -3
STARTPROPERTIES 25
FONTNAME_REGISTRY ""
FOUNDRY "misc"
FAMILY_NAME "trigon"
WEIGHT_NAME "medium"
SLANT "r"
SETWIDTH_NAME "normal"
ADD_STYLE_NAME ""
PIXEL_SIZE 15
POINT_SIZE 108
RESOLUTION_X 100
RESOLUTION_Y 100
SPACING "c"
AVERAGE_WIDTH 80
CHARSET_REGISTRY "ISO10646"
CHARSET_ENCODING "1"
COPYRIGHT "(c) 2015 Scott Fial"
CAP_HEIGHT 8
X_HEIGHT 6
FONT_VERSION "1.0"
WEIGHT 10
QUAD_WIDTH 8
DEFAULT_CHAR 0
FONT_DESCENT 3
FONT_ASCENT 12
_GBDFED_INFO "Edited with gbdfed 1.6."
ENDPROPERTIES
CHARS 189
STARTCHAR U+0000
ENCODING 0
SWIDTH 384 0
DWIDTH 8 0
BBX 8 15 0 -3
BITMAP
00
00
00
00
7E
4E
42
42
42
42
62
7E
00
00
00
ENDCHAR
STARTCHAR U+2592
ENCODING 2
SWIDTH 384 0
DWIDTH 8 0
BBX 8 15 0 -3
BITMAP
55
AA
55
AA
55
AA
55
AA
55
AA
55
AA
55
AA
55
ENDCHAR
STARTCHAR U+00B0
ENCODING 7
SWIDTH 384 0
DWIDTH 8 0
BBX 8 15 0 -3
BITMAP
00
00
00
00
38
4C
44
44
38
00
00
00
00
00
00
ENDCHAR
STARTCHAR U+2518
ENCODING 11
SWIDTH 384 0
DWIDTH 8 0
BBX 8 15 0 -3
BITMAP
08
08
08
08
08
08
08
18
F8
00
00
00
00
00
00
ENDCHAR
STARTCHAR U+2510
ENCODING 12
SWIDTH 384 0
DWIDTH 8 0
BBX 8 15 0 -3
BITMAP
00
00
00
00
00
00
00
00
F8
18
08
08
08
08
08
ENDCHAR
STARTCHAR U+250C
ENCODING 13
SWIDTH 384 0
DWIDTH 8 0
BBX 8 15 0 -3
BITMAP
00
00
00
00
00
00
00
00
0F
0C
08
08
08
08
08
ENDCHAR
STARTCHAR U+2514
ENCODING 14
SWIDTH 384 0
DWIDTH 8 0
BBX 8 15 0 -3
BITMAP
08
08
08
08
08
08
08
0C
0F
00
00
00
00
00
00
ENDCHAR
STARTCHAR U+253C
ENCODING 15
SWIDTH 384 0
DWIDTH 8 0
BBX 8 15 0 -3
BITMAP
08
08
08
08
08
08
08
08
FF
18
08
08
08
08
08
ENDCHAR
STARTCHAR U+2500
ENCODING 18
SWIDTH 384 0
DWIDTH 8 0
BBX 8 15 0 -3
BITMAP
00
00
00
00
00
00
00
00
FF
00
00
00
00
00
00
ENDCHAR
STARTCHAR U+251C
ENCODING 21
SWIDTH 384 0
DWIDTH 8 0
BBX 8 15 0 -3
BITMAP
08
08
08
08
08
08
08
0C
0F
08
08
08
08
08
08
ENDCHAR
STARTCHAR U+2524
ENCODING 22
SWIDTH 384 0
DWIDTH 8 0
BBX 8 15 0 -3
BITMAP
08
08
08
08
08
08
08
18
F8
08
08
08
08
08
08
ENDCHAR
STARTCHAR U+2534
ENCODING 23
SWIDTH 384 0
DWIDTH 8 0
BBX 8 15 0 -3
BITMAP
08
08
08
08
08
08
08
18
FF
00
00
00
00
00
00
ENDCHAR
STARTCHAR U+252C
ENCODING 24
SWIDTH 384 0
DWIDTH 8 0
BBX 8 15 0 -3
BITMAP
00
00
00
00
00
00
00
00
FF
18
08
08
08
08
08
ENDCHAR
STARTCHAR U+2502
ENCODING 25
SWIDTH 384 0
DWIDTH 8 0
BBX 8 15 0 -3
BITMAP
08
08
08
08
08
08
08
08
08
08
08
08
08
08
08
ENDCHAR
STARTCHAR U+00A3
ENCODING 30
SWIDTH 384 0
DWIDTH 8 0
BBX 8 15 0 -3
BITMAP
00
00
00
00
0E
13
10
7C
30
12
B9
46
00
00
00
ENDCHAR
STARTCHAR U+0020
ENCODING 32
SWIDTH 384 0
DWIDTH 8 0
BBX 8 15 0 -3
BITMAP
00
00
00
00
00
00
00
00
00
00
00
00
00
00
00
ENDCHAR
STARTCHAR U+0021
ENCODING 33
SWIDTH 384 0
DWIDTH 8 0
BBX 8 15 0 -3
BITMAP
00
00
08
10
10
10
10
10
00
00
18
10
00
00
00
ENDCHAR
STARTCHAR U+0022
ENCODING 34
SWIDTH 384 0
DWIDTH 8 0
BBX 8 15 0 -3
BITMAP
00
00
00
36
36
24
24
00
00
00
00
00
00
00
00
ENDCHAR
STARTCHAR U+0023
ENCODING 35
SWIDTH 384 0
DWIDTH 8 0
BBX 8 15 0 -3
BITMAP
00
00
00
12
24
25
7E
24
25
7E
24
24
00
00
00
ENDCHAR
STARTCHAR U+0024
ENCODING 36
SWIDTH 384 0
DWIDTH 8 0
BBX 8 15 0 -3
BITMAP
00
04
08
08
1C
2A
28
1C
0A
2A
1C
08
18
00
00
ENDCHAR
STARTCHAR U+0025
ENCODING 37
SWIDTH 384 0
DWIDTH 8 0
BBX 8 15 0 -3
BITMAP
00
00
00
30
59
4B
34
08
16
2B
49
26
00
00
00
ENDCHAR
STARTCHAR U+0026
ENCODING 38
SWIDTH 384 0
DWIDTH 8 0
BBX 8 15 0 -3
BITMAP
00
00
00
70
48
48
30
33
49
46
66
39
00
00
00
ENDCHAR
STARTCHAR U+0027
ENCODING 39
SWIDTH 384 0
DWIDTH 8 0
BBX 8 15 0 -3
BITMAP
00
00
00
18
18
10
10
00
00
00
00
00
00
00
00
ENDCHAR
STARTCHAR U+0028
ENCODING 40
SWIDTH 384 0
DWIDTH 8 0
BBX 8 15 0 -3
BITMAP
00
00
00
04
0A
08
10
10
10
10
10
08
08
06
00
ENDCHAR
STARTCHAR U+0029
ENCODING 41
SWIDTH 384 0
DWIDTH 8 0
BBX 8 15 0 -3
BITMAP
00
00
00
20
50
10
08
08
08
08
08
10
10
60
00
ENDCHAR
STARTCHAR U+002A
ENCODING 42
SWIDTH 384 0
DWIDTH 8 0
BBX 8 15 0 -3
BITMAP
00
00
00
00
00
02
24
19
7E
18
26
00
00
00
00
ENDCHAR
STARTCHAR U+002B
ENCODING 43
SWIDTH 384 0
DWIDTH 8 0
BBX 8 15 0 -3
BITMAP
00
00
00
00
00
18
08
09
7F
08
08
08
00
00
00
ENDCHAR
STARTCHAR U+002C
ENCODING 44
SWIDTH 384 0
DWIDTH 8 0
BBX 8 15 0 -3
BITMAP
00
00
00
00
00
00
00
00
00
00
18
18
08
08
10
ENDCHAR
STARTCHAR U+002D
ENCODING 45
SWIDTH 384 0
DWIDTH 8 0
BBX 8 15 0 -3
BITMAP
00
00
00
00
00
00
00
01
7E
00
00
00
00
00
00
ENDCHAR
STARTCHAR U+002E
ENCODING 46
SWIDTH 384 0
DWIDTH 8 0
BBX 8 15 0 -3
BITMAP
00
00
00
00
00
00
00
00
00
00
18
1C
00
00
00
ENDCHAR
STARTCHAR U+002F
ENCODING 47
SWIDTH 384 0
DWIDTH 8 0
BBX 8 15 0 -3
BITMAP
00
00
00
00
06
04
08
08
10
10
20
20
40
C0
00
ENDCHAR
STARTCHAR U+0030
ENCODING 48
SWIDTH 384 0
DWIDTH 8 0
BBX 8 15 0 -3
BITMAP
00
00
00
00
3D
62
46
4A
52
62
46
BC
00
00
00
ENDCHAR
STARTCHAR U+0031
ENCODING 49
SWIDTH 384 0
DWIDTH 8 0
BBX 8 15 0 -3
BITMAP
00
00
00
00
08
18
28
28
08
08
0A
3C
00
00
00
ENDCHAR
STARTCHAR U+0032
ENCODING 50
SWIDTH 384 0
DWIDTH 8 0
BBX 8 15 0 -3
BITMAP
00
00
00
00
3C
42
62
04
08
10
21
7E
00
00
00
ENDCHAR
STARTCHAR U+0033
ENCODING 51
SWIDTH 384 0
DWIDTH 8 0
BBX 8 15 0 -3
BITMAP
00
00
00
00
3C
44
08
1C
02
02
22
3C
00
00
00
ENDCHAR
STARTCHAR U+0034
ENCODING 52
SWIDTH 384 0
DWIDTH 8 0
BBX 8 15 0 -3
BITMAP
00
00
00
00
06
0C
14
24
64
3C
04
0C
00
00
00
ENDCHAR
STARTCHAR U+0035
ENCODING 53
SWIDTH 384 0
DWIDTH 8 0
BBX 8 15 0 -3
BITMAP
00
00
00
02
7C
60
40
7C
06
02
42
7C
00
00
00
ENDCHAR
STARTCHAR U+0036
ENCODING 54
SWIDTH 384 0
DWIDTH 8 0
BBX 8 15 0 -3
BITMAP
00
00
00
00
1C
24
40
7C
46
42
62
3C
00
00
00
ENDCHAR
STARTCHAR U+0037
ENCODING 55
SWIDTH 384 0
DWIDTH 8 0
BBX 8 15 0 -3
BITMAP
00
00
00
00
3E
42
04
05
3E
48
10
10
00
00
00
ENDCHAR
STARTCHAR U+0038
ENCODING 56
SWIDTH 384 0
DWIDTH 8 0
BBX 8 15 0 -3
BITMAP
00
00
00
00
3C
46
42
3C
46
42
62
3C
00
00
00
ENDCHAR
STARTCHAR U+0039
ENCODING 57
SWIDTH 384 0
DWIDTH 8 0
BBX 8 15 0 -3
BITMAP
00
00
00
00
3C
46
42
42
3E
02
24
38
00
00
00
ENDCHAR
STARTCHAR U+003A
ENCODING 58
SWIDTH 384 0
DWIDTH 8 0
BBX 8 15 0 -3
BITMAP
00
00
00
00
00
18
30
00
00
00
18
30
00
00
00
ENDCHAR
STARTCHAR U+003B
ENCODING 59
SWIDTH 384 0
DWIDTH 8 0
BBX 8 15 0 -3
BITMAP
00
00
00
00
00
18
30
00
00
00
18
18
08
28
10
ENDCHAR
STARTCHAR U+003C
ENCODING 60
SWIDTH 384 0
DWIDTH 8 0
BBX 8 15 0 -3
BITMAP
00
00
00
00
00
04
0C
10
30
10
08
04
00
00
00
ENDCHAR
STARTCHAR U+003D
ENCODING 61
SWIDTH 384 0
DWIDTH 8 0
BBX 8 15 0 -3
BITMAP
00
00
00
00
00
01
7E
00
01
7E
00
00
00
00
00
ENDCHAR
STARTCHAR U+003E
ENCODING 62
SWIDTH 384 0
DWIDTH 8 0
BBX 8 15 0 -3
BITMAP
00
00
00
00
00
20
30
08
0C
08
10
20
00
00
00
ENDCHAR
STARTCHAR U+003F
ENCODING 63
SWIDTH 384 0
DWIDTH 8 0
BBX 8 15 0 -3
BITMAP
00
00
00
3C
46
24
08
10
08
00
18
10
00
00
00
ENDCHAR
STARTCHAR U+0040
ENCODING 64
SWIDTH 384 0
DWIDTH 8 0
BBX 8 15 0 -3
BITMAP
00
00
00
1C
22
41
4F
53
51
5B
4D
40
21
1F
00
ENDCHAR
STARTCHAR U+0041
ENCODING 65
SWIDTH 384 0
DWIDTH 8 0
BBX 8 15 0 -3
BITMAP
00
00
00
00
18
2C
46
42
7E
42
42
C6
00
00
00
ENDCHAR
STARTCHAR U+0042
ENCODING 66
SWIDTH 384 0
DWIDTH 8 0
BBX 8 15 0 -3
BITMAP
00
00
00
00
7C
46
42
7C
46
42
42
FC
00
00
00
ENDCHAR
STARTCHAR U+0043
ENCODING 67
SWIDTH 384 0
DWIDTH 8 0
BBX 8 15 0 -3
BITMAP
00
00
00
00
1E
26
40
40
40
61
32
1E
00
00
00
ENDCHAR
STARTCHAR U+0044
ENCODING 68
SWIDTH 384 0
DWIDTH 8 0
BBX 8 15 0 -3
BITMAP
00
00
00
00
F8
4C
46
42
42
42
64
F8
00
00
00
ENDCHAR
STARTCHAR U+0045
ENCODING 69
SWIDTH 384 0
DWIDTH 8 0
BBX 8 15 0 -3
BITMAP
00
00
00
00
7C
62
40
78
64
40
41
7E
00
00
00
ENDCHAR
STARTCHAR U+0046
ENCODING 70
SWIDTH 384 0
DWIDTH 8 0
BBX 8 15 0 -3
BITMAP
00
00
00
00
7C
42
40
78
44
40
40
60
00
00
00
ENDCHAR
STARTCHAR U+0047
ENCODING 71
SWIDTH 384 0
DWIDTH 8 0
BBX 8 15 0 -3
BITMAP
00
00
00
00
1E
26
40
40
4F
61
23
1E
00
00
00
ENDCHAR
STARTCHAR U+0048
ENCODING 72
SWIDTH 384 0
DWIDTH 8 0
BBX 8 15 0 -3
BITMAP
00
00
00
21
42
42
42
7E
62
42
42
63
00
00
00
ENDCHAR
STARTCHAR U+0049
ENCODING 73
SWIDTH 384 0
DWIDTH 8 0
BBX 8 15 0 -3
BITMAP
00
00
00
21
3E
08
08
08
08
08
09
7E
00
00
00
ENDCHAR
STARTCHAR U+004A
ENCODING 74
SWIDTH 384 0
DWIDTH 8 0
BBX 8 15 0 -3
BITMAP
00
00
20
1E
06
02
02
02
62
42
46
3C
00
00
00
ENDCHAR
STARTCHAR U+004B
ENCODING 75
SWIDTH 384 0
DWIDTH 8 0
BBX 8 15 0 -3
BITMAP
00
00
00
00
62
46
48
70
70
48
45
62
00
00
00
ENDCHAR
STARTCHAR U+004C
ENCODING 76
SWIDTH 384 0
DWIDTH 8 0
BBX 8 15 0 -3
BITMAP
00
00
00
80
40
40
40
40
40
41
42
7E
00
00
00
ENDCHAR
STARTCHAR U+004D
ENCODING 77
SWIDTH 384 0
DWIDTH 8 0
BBX 8 15 0 -3
BITMAP
00
00
00
82
41
63
77
49
41
41
41
61
00
00
00
ENDCHAR
STARTCHAR U+004E
ENCODING 78
SWIDTH 384 0
DWIDTH 8 0
BBX 8 15 0 -3
BITMAP
00
00
00
84
42
62
72
4A
46
42
42
62
00
00
00
ENDCHAR
STARTCHAR U+004F
ENCODING 79
SWIDTH 384 0
DWIDTH 8 0
BBX 8 15 0 -3
BITMAP
00
00
00
00
3C
66
42
42
42
42
72
3C
00
00
00
ENDCHAR
STARTCHAR U+0050
ENCODING 80
SWIDTH 384 0
DWIDTH 8 0
BBX 8 15 0 -3
BITMAP
00
00
00
00
7C
46
42
42
7C
60
40
60
00
00
00
ENDCHAR
STARTCHAR U+0051
ENCODING 81
SWIDTH 384 0
DWIDTH 8 0
BBX 8 15 0 -3
BITMAP
00
00
00
00
3C
66
42
42
42
42
72
3C
05
03
00
ENDCHAR
STARTCHAR U+0052
ENCODING 82
SWIDTH 384 0
DWIDTH 8 0
BBX 8 15 0 -3
BITMAP
00
00
00
00
7C
46
42
42
7C
48
45
62
00
00
00
ENDCHAR
STARTCHAR U+0053
ENCODING 83
SWIDTH 384 0
DWIDTH 8 0
BBX 8 15 0 -3
BITMAP
00
00
00
00
3E
66
40
30
0C
06
62
7C
00
00
00
ENDCHAR
STARTCHAR U+0054
ENCODING 84
SWIDTH 384 0
DWIDTH 8 0
BBX 8 15 0 -3
BITMAP
00
00
00
40
7F
0C
08
08
08
08
08
0C
00
00
00
ENDCHAR
STARTCHAR U+0055
ENCODING 85
SWIDTH 384 0
DWIDTH 8 0
BBX 8 15 0 -3
BITMAP
00
00
00
84
46
42
42
42
42
42
62
3C
00
00
00
ENDCHAR
STARTCHAR U+0056
ENCODING 86
SWIDTH 384 0
DWIDTH 8 0
BBX 8 15 0 -3
BITMAP
00
00
00
01
63
42
42
42
24
34
18
18
00
00
00
ENDCHAR
STARTCHAR U+0057
ENCODING 87
SWIDTH 384 0
DWIDTH 8 0
BBX 8 15 0 -3
BITMAP
00
00
00
82
43
41
41
41
41
49
77
63
00
00
00
ENDCHAR
STARTCHAR U+0058
ENCODING 88
SWIDTH 384 0
DWIDTH 8 0
BBX 8 15 0 -3
BITMAP
00
00
00
84
42
42
24
18
18
24
42
C6
00
00
00
ENDCHAR
STARTCHAR U+0059
ENCODING 89
SWIDTH 384 0
DWIDTH 8 0
BBX 8 15 0 -3
BITMAP
00
00
00
80
43
41
22
14
0C
08
08
18
00
00
00
ENDCHAR
STARTCHAR U+005A
ENCODING 90
SWIDTH 384 0
DWIDTH 8 0
BBX 8 15 0 -3
BITMAP
00
00
00
40
3E
32
04
08
10
21
63
7E
00
00
00
ENDCHAR
STARTCHAR U+005B
ENCODING 91
SWIDTH 384 0
DWIDTH 8 0
BBX 8 15 0 -3
BITMAP
00
00
00
1E
12
10
10
10
10
10
10
10
12
1E
00
ENDCHAR
STARTCHAR U+005C
ENCODING 92
SWIDTH 384 0
DWIDTH 8 0
BBX 8 15 0 -3
BITMAP
00
00
00
00
40
40
20
20
10
10
08
08
04
04
00
ENDCHAR
STARTCHAR U+005D
ENCODING 93
SWIDTH 384 0
DWIDTH 8 0
BBX 8 15 0 -3
BITMAP
00
00
00
78
48
08
08
08
08
08
08
08
48
78
00
ENDCHAR
STARTCHAR U+005E
ENCODING 94
SWIDTH 384 0
DWIDTH 8 0
BBX 8 15 0 -3
BITMAP
00
00
00
00
10
38
44
02
00
00
00
00
00
00
00
ENDCHAR
STARTCHAR U+005F
ENCODING 95
SWIDTH 384 0
DWIDTH 8 0
BBX 8 15 0 -3
BITMAP
00
00
00
00
00
00
00
00
00
00
00
00
01
FF
00
ENDCHAR
STARTCHAR U+0060
ENCODING 96
SWIDTH 384 0
DWIDTH 8 0
BBX 8 15 0 -3
BITMAP
00
00
00
18
08
04
00
00
00
00
00
00
00
00
00
ENDCHAR
STARTCHAR U+0061
ENCODING 97
SWIDTH 384 0
DWIDTH 8 0
BBX 8 15 0 -3
BITMAP
00
00
00
00
00
00
3C
42
3E
46
42
3F
00
00
00
ENDCHAR
STARTCHAR U+0062
ENCODING 98
SWIDTH 384 0
DWIDTH 8 0
BBX 8 15 0 -3
BITMAP
00
00
00
60
40
40
7C
46
42
42
42
FC
00
00
00
ENDCHAR
STARTCHAR U+0063
ENCODING 99
SWIDTH 384 0
DWIDTH 8 0
BBX 8 15 0 -3
BITMAP
00
00
00
00
00
00
3C
46
40
40
62
3C
00
00
00
ENDCHAR
STARTCHAR U+0064
ENCODING 100
SWIDTH 384 0
DWIDTH 8 0
BBX 8 15 0 -3
BITMAP
00
00
00
06
02
02
3E
46
42
42
42
3F
00
00
00
ENDCHAR
STARTCHAR U+0065
ENCODING 101
SWIDTH 384 0
DWIDTH 8 0
BBX 8 15 0 -3
BITMAP
00
00
00
00
00
00
3E
42
7E
40
62
3C
00
00
00
ENDCHAR
STARTCHAR U+0066
ENCODING 102
SWIDTH 384 0
DWIDTH 8 0
BBX 8 15 0 -3
BITMAP
00
00
00
0E
10
12
3C
50
10
10
10
20
00
00
00
ENDCHAR
STARTCHAR U+0067
ENCODING 103
SWIDTH 384 0
DWIDTH 8 0
BBX 8 15 0 -3
BITMAP
00
00
00
00
00
01
3E
42
42
42
62
3E
02
42
3C
ENDCHAR
STARTCHAR U+0068
ENCODING 104
SWIDTH 384 0
DWIDTH 8 0
BBX 8 15 0 -3
BITMAP
00
00
00
60
40
40
7C
46
42
42
42
43
00
00
00
ENDCHAR
STARTCHAR U+0069
ENCODING 105
SWIDTH 384 0
DWIDTH 8 0
BBX 8 15 0 -3
BITMAP
00
00
00
08
08
20
18
08
08
08
08
1C
00
00
00
ENDCHAR
STARTCHAR U+006A
ENCODING 106
SWIDTH 384 0
DWIDTH 8 0
BBX 8 15 0 -3
BITMAP
00
00
00
04
04
10
0C
04
04
04
04
04
04
24
18
ENDCHAR
STARTCHAR U+006B
ENCODING 107
SWIDTH 384 0
DWIDTH 8 0
BBX 8 15 0 -3
BITMAP
00
00
00
60
40
40
44
48
50
70
4A
46
00
00
00
ENDCHAR
STARTCHAR U+006c
ENCODING 108
SWIDTH 384 0
DWIDTH 8 0
BBX 8 15 0 -3
BITMAP
00
00
40
30
10
10
10
10
10
10
12
1C
00
00
00
ENDCHAR
STARTCHAR U+006d
ENCODING 109
SWIDTH 384 0
DWIDTH 8 0
BBX 8 15 0 -3
BITMAP
00
00
00
00
00
80
F6
5B
49
49
49
49
00
00
00
ENDCHAR
STARTCHAR U+006e
ENCODING 110
SWIDTH 384 0
DWIDTH 8 0
BBX 8 15 0 -3
BITMAP
00
00
00
00
00
80
7C
46
42
42
42
42
00
00
00
ENDCHAR
STARTCHAR U+006F
ENCODING 111
SWIDTH 384 0
DWIDTH 8 0
BBX 8 15 0 -3
BITMAP
00
00
00
00
00
00
3C
46
42
42
42
3C
00
00
00
ENDCHAR
STARTCHAR U+0070
ENCODING 112
SWIDTH 384 0
DWIDTH 8 0
BBX 8 15 0 -3
BITMAP
00
00
00
00
00
80
7C
46
42
42
42
7C
40
40
C0
ENDCHAR
STARTCHAR U+0071
ENCODING 113
SWIDTH 384 0
DWIDTH 8 0
BBX 8 15 0 -3
BITMAP
00
00
00
00
00
01
3E
46
42
42
46
3A
02
02
03
ENDCHAR
STARTCHAR U+0072
ENCODING 114
SWIDTH 384 0
DWIDTH 8 0
BBX 8 15 0 -3
BITMAP
00
00
00
00
00
80
7C
62
44
40
40
C0
00
00
00
ENDCHAR
STARTCHAR U+0073
ENCODING 115
SWIDTH 384 0
DWIDTH 8 0
BBX 8 15 0 -3
BITMAP
00
00
00
00
00
00
3C
46
30
0C
62
3C
00
00
00
ENDCHAR
STARTCHAR U+0074
ENCODING 116
SWIDTH 384 0
DWIDTH 8 0
BBX 8 15 0 -3
BITMAP
00
00
00
20
10
12
3C
50
10
10
12
0C
00
00
00
ENDCHAR
STARTCHAR U+0075
ENCODING 117
SWIDTH 384 0
DWIDTH 8 0
BBX 8 15 0 -3
BITMAP
00
00
00
00
00
80
42
42
42
42
46
3F
00
00
00
ENDCHAR
STARTCHAR U+0076
ENCODING 118
SWIDTH 384 0
DWIDTH 8 0
BBX 8 15 0 -3
BITMAP
00
00
00
00
00
84
42
42
24
24
18
18
00
00
00
ENDCHAR
STARTCHAR U+0077
ENCODING 119
SWIDTH 384 0
DWIDTH 8 0
BBX 8 15 0 -3
BITMAP
00
00
00
00
00
80
41
49
49
49
6D
36
00
00
00
ENDCHAR
STARTCHAR U+0078
ENCODING 120
SWIDTH 384 0
DWIDTH 8 0
BBX 8 15 0 -3
BITMAP
00
00
00
00
00
04
C2
24
18
18
24
42
00
00
00
ENDCHAR
STARTCHAR U+0079
ENCODING 121
SWIDTH 384 0
DWIDTH 8 0
BBX 8 15 0 -3
BITMAP
00
00
00
00
00
80
42
42
42
42
46
3E
02
42
3C
ENDCHAR
STARTCHAR U+007A
ENCODING 122
SWIDTH 384 0
DWIDTH 8 0
BBX 8 15 0 -3
BITMAP
00
00
00
00
00
00
7E
44
08
10
33
7E
00
00
00
ENDCHAR
STARTCHAR U+007B
ENCODING 123
SWIDTH 384 0
DWIDTH 8 0
BBX 8 15 0 -3
BITMAP
00
00
00
06
0B
08
08
08
10
08
08
08
0B
06
00
ENDCHAR
STARTCHAR U+007C
ENCODING 124
SWIDTH 384 0
DWIDTH 8 0
BBX 8 15 0 -3
BITMAP
00
00
0C
08
08
08
08
08
08
08
08
08
08
08
00
ENDCHAR
STARTCHAR U+007D
ENCODING 125
SWIDTH 384 0
DWIDTH 8 0
BBX 8 15 0 -3
BITMAP
00
00
00
60
D0
10
10
10
08
10
10
10
D0
60
00
ENDCHAR
STARTCHAR U+007E
ENCODING 126
SWIDTH 384 0
DWIDTH 8 0
BBX 8 15 0 -3
BITMAP
00
00
00
03
31
49
66
20
00
00
00
00
00
00
00
ENDCHAR
STARTCHAR U+00A0
ENCODING 160
SWIDTH 384 0
DWIDTH 8 0
BBX 8 15 0 -3
BITMAP
00
00
00
00
00
00
00
00
00
00
00
00
00
00
00
ENDCHAR
STARTCHAR U+00A1
ENCODING 161
SWIDTH 384 0
DWIDTH 8 0
BBX 8 15 0 -3
BITMAP
00
00
00
00
00
00
10
30
00
00
30
30
10
10
10
ENDCHAR
STARTCHAR U+00A2
ENCODING 162
SWIDTH 384 0
DWIDTH 8 0
BBX 8 15 0 -3
BITMAP
00
00
00
08
08
3E
49
48
48
49
3E
08
08
00
00
ENDCHAR
STARTCHAR U+00A3
ENCODING 163
SWIDTH 384 0
DWIDTH 8 0
BBX 8 15 0 -3
BITMAP
00
00
00
00
0E
11
10
7C
10
10
39
46
00
00
00
ENDCHAR
STARTCHAR U+00A4
ENCODING 164
SWIDTH 384 0
DWIDTH 8 0
BBX 8 15 0 -3
BITMAP
00
00
00
00
00
42
3C
24
24
3C
42
00
00
00
00
ENDCHAR
STARTCHAR U+00A5
ENCODING 165
SWIDTH 384 0
DWIDTH 8 0
BBX 8 15 0 -3
BITMAP
00
00
00
00
41
22
14
3E
08
3E
08
08
00
00
00
ENDCHAR
STARTCHAR U+00A6
ENCODING 166
SWIDTH 384 0
DWIDTH 8 0
BBX 8 15 0 -3
BITMAP
00
00
00
00
08
08
08
08
00
00
08
08
08
08
00
ENDCHAR
STARTCHAR U+00A8
ENCODING 168
SWIDTH 384 0
DWIDTH 8 0
BBX 8 15 0 -3
BITMAP
00
24
24
00
00
00
00
00
00
00
00
00
00
00
00
ENDCHAR
STARTCHAR U+00A9
ENCODING 169
SWIDTH 384 0
DWIDTH 8 0
BBX 8 15 0 -3
BITMAP
00
00
00
00
1C
22
4D
51
51
4D
22
1C
00
00
00
ENDCHAR
STARTCHAR U+00AB
ENCODING 171
SWIDTH 384 0
DWIDTH 8 0
BBX 8 15 0 -3
BITMAP
00
00
00
00
00
09
12
24
48
24
12
09
00
00
00
ENDCHAR
STARTCHAR U+00AD
ENCODING 173
SWIDTH 384 0
DWIDTH 8 0
BBX 8 15 0 -3
BITMAP
00
00
00
00
00
00
00
00
7E
00
00
00
00
00
00
ENDCHAR
STARTCHAR U+00B0
ENCODING 176
SWIDTH 384 0
DWIDTH 8 0
BBX 8 15 0 -3
BITMAP
00
00
00
00
38
44
44
44
38
00
00
00
00
00
00
ENDCHAR
STARTCHAR U+00B8
ENCODING 184
SWIDTH 384 0
DWIDTH 8 0
BBX 8 15 0 -3
BITMAP
00
00
00
00
00
00
00
00
00
00
00
00
08
08
30
ENDCHAR
STARTCHAR U+00BB
ENCODING 187
SWIDTH 384 0
DWIDTH 8 0
BBX 8 15 0 -3
BITMAP
00
00
00
00
00
48
24
12
09
12
24
48
00
00
00
ENDCHAR
STARTCHAR U+00BF
ENCODING 191
SWIDTH 384 0
DWIDTH 8 0
BBX 8 15 0 -3
BITMAP
00
00
00
00
00
00
08
08
00
00
08
10
20
22
1C
ENDCHAR
STARTCHAR U+00C0
ENCODING 192
SWIDTH 384 0
DWIDTH 8 0
BBX 8 15 0 -3
BITMAP
00
20
10
00
18
18
24
24
24
7E
42
42
00
00
00
ENDCHAR
STARTCHAR U+00C1
ENCODING 193
SWIDTH 384 0
DWIDTH 8 0
BBX 8 15 0 -3
BITMAP
00
04
08
00
18
18
24
24
24
7E
42
42
00
00
00
ENDCHAR
STARTCHAR U+00C2
ENCODING 194
SWIDTH 384 0
DWIDTH 8 0
BBX 8 15 0 -3
BITMAP
00
18
24
00
18
18
24
24
24
7E
42
42
00
00
00
ENDCHAR
STARTCHAR U+00C3
ENCODING 195
SWIDTH 384 0
DWIDTH 8 0
BBX 8 15 0 -3
BITMAP
00
32
4C
00
18
18
24
24
24
7E
42
42
00
00
00
ENDCHAR
STARTCHAR U+00C4
ENCODING 196
SWIDTH 384 0
DWIDTH 8 0
BBX 8 15 0 -3
BITMAP
00
24
24
00
18
18
24
24
24
7E
42
42
00
00
00
ENDCHAR
STARTCHAR U+00C5
ENCODING 197
SWIDTH 384 0
DWIDTH 8 0
BBX 8 15 0 -3
BITMAP
00
18
24
24
18
18
24
24
24
7E
42
42
00
00
00
ENDCHAR
STARTCHAR U+00C6
ENCODING 198
SWIDTH 384 0
DWIDTH 8 0
BBX 8 15 0 -3
BITMAP
00
00
00
00
1F
18
28
2E
28
78
48
4F
00
00
00
ENDCHAR
STARTCHAR U+00C7
ENCODING 199
SWIDTH 384 0
DWIDTH 8 0
BBX 8 15 0 -3
BITMAP
00
00
00
00
1E
20
40
40
40
40
20
1E
08
08
30
ENDCHAR
STARTCHAR U+00C8
ENCODING 200
SWIDTH 384 0
DWIDTH 8 0
BBX 8 15 0 -3
BITMAP
00
20
10
00
7E
40
40
7C
40
40
40
7E
00
00
00
ENDCHAR
STARTCHAR U+00C9
ENCODING 201
SWIDTH 384 0
DWIDTH 8 0
BBX 8 15 0 -3
BITMAP
00
04
08
00
7E
40
40
7C
40
40
40
7E
00
00
00
ENDCHAR
STARTCHAR U+00CA
ENCODING 202
SWIDTH 384 0
DWIDTH 8 0
BBX 8 15 0 -3
BITMAP
00
18
24
00
7E
40
40
7C
40
40
40
7E
00
00
00
ENDCHAR
STARTCHAR U+00CB
ENCODING 203
SWIDTH 384 0
DWIDTH 8 0
BBX 8 15 0 -3
BITMAP
00
24
24
00
7E
40
40
7C
40
40
40
7E
00
00
00
ENDCHAR
STARTCHAR U+00CC
ENCODING 204
SWIDTH 384 0
DWIDTH 8 0
BBX 8 15 0 -3
BITMAP
00
10
08
00
3E
08
08
08
08
08
08
3E
00
00
00
ENDCHAR
STARTCHAR U+00CD
ENCODING 205
SWIDTH 384 0
DWIDTH 8 0
BBX 8 15 0 -3
BITMAP
00
04
08
00
3E
08
08
08
08
08
08
3E
00
00
00
ENDCHAR
STARTCHAR U+00CE
ENCODING 206
SWIDTH 384 0
DWIDTH 8 0
BBX 8 15 0 -3
BITMAP
00
08
14
00
3E
08
08
08
08
08
08
3E
00
00
00
ENDCHAR
STARTCHAR U+00CF
ENCODING 207
SWIDTH 384 0
DWIDTH 8 0
BBX 8 15 0 -3
BITMAP
00
14
14
00
3E
08
08
08
08
08
08
3E
00
00
00
ENDCHAR
STARTCHAR U+00D0
ENCODING 208
SWIDTH 384 0
DWIDTH 8 0
BBX 8 15 0 -3
BITMAP
00
00
00
00
3C
22
21
79
21
21
22
3C
00
00
00
ENDCHAR
STARTCHAR U+00D1
ENCODING 209
SWIDTH 384 0
DWIDTH 8 0
BBX 8 15 0 -3
BITMAP
00
32
4C
00
42
62
52
4A
46
42
42
42
00
00
00
ENDCHAR
STARTCHAR U+00D2
ENCODING 210
SWIDTH 384 0
DWIDTH 8 0
BBX 8 15 0 -3
BITMAP
00
10
08
00
1C
22
41
41
41
41
22
1C
00
00
00
ENDCHAR
STARTCHAR U+00D3
ENCODING 211
SWIDTH 384 0
DWIDTH 8 0
BBX 8 15 0 -3
BITMAP
00
04
08
00
1C
22
41
41
41
41
22
1C
00
00
00
ENDCHAR
STARTCHAR U+00D4
ENCODING 212
SWIDTH 384 0
DWIDTH 8 0
BBX 8 15 0 -3
BITMAP
00
08
14
00
1C
22
41
41
41
41
22
1C
00
00
00
ENDCHAR
STARTCHAR U+00D5
ENCODING 213
SWIDTH 384 0
DWIDTH 8 0
BBX 8 15 0 -3
BITMAP
00
19
26
00
1C
22
41
41
41
41
22
1C
00
00
00
ENDCHAR
STARTCHAR U+00D6
ENCODING 214
SWIDTH 384 0
DWIDTH 8 0
BBX 8 15 0 -3
BITMAP
00
22
22
00
1C
22
41
41
41
41
22
1C
00
00
00
ENDCHAR
STARTCHAR U+00D7
ENCODING 215
SWIDTH 384 0
DWIDTH 8 0
BBX 8 15 0 -3
BITMAP
00
00
00
00
00
00
22
14
08
14
22
00
00
00
00
ENDCHAR
STARTCHAR U+00D8
ENCODING 216
SWIDTH 384 0
DWIDTH 8 0
BBX 8 15 0 -3
BITMAP
00
00
00
01
1E
22
45
49
49
51
22
3C
40
00
00
ENDCHAR
STARTCHAR U+00D9
ENCODING 217
SWIDTH 384 0
DWIDTH 8 0
BBX 8 15 0 -3
BITMAP
00
20
10
00
42
42
42
42
42
42
42
3C
00
00
00
ENDCHAR
STARTCHAR U+00DA
ENCODING 218
SWIDTH 384 0
DWIDTH 8 0
BBX 8 15 0 -3
BITMAP
00
04
08
00
42
42
42
42
42
42
42
3C
00
00
00
ENDCHAR
STARTCHAR U+00DB
ENCODING 219
SWIDTH 384 0
DWIDTH 8 0
BBX 8 15 0 -3
BITMAP
00
18
24
00
42
42
42
42
42
42
42
3C
00
00
00
ENDCHAR
STARTCHAR U+00DC
ENCODING 220
SWIDTH 384 0
DWIDTH 8 0
BBX 8 15 0 -3
BITMAP
00
24
24
00
42
42
42
42
42
42
42
3C
00
00
00
ENDCHAR
STARTCHAR U+00DD
ENCODING 221
SWIDTH 384 0
DWIDTH 8 0
BBX 8 15 0 -3
BITMAP
00
22
22
00
41
41
22
14
08
08
08
08
00
00
00
ENDCHAR
STARTCHAR U+00DE
ENCODING 222
SWIDTH 384 0
DWIDTH 8 0
BBX 8 15 0 -3
BITMAP
00
00
00
00
40
7C
42
42
42
42
7C
40
00
00
00
ENDCHAR
STARTCHAR U+00DF
ENCODING 223
SWIDTH 384 0
DWIDTH 8 0
BBX 8 15 0 -3
BITMAP
00
00
00
00
3C
42
44
4C
42
42
42
4C
00
00
00
ENDCHAR
STARTCHAR U+00E0
ENCODING 224
SWIDTH 384 0
DWIDTH 8 0
BBX 8 15 0 -3
BITMAP
00
00
00
20
10
00
3C
02
3E
42
42
3E
00
00
00
ENDCHAR
STARTCHAR U+00E1
ENCODING 225
SWIDTH 384 0
DWIDTH 8 0
BBX 8 15 0 -3
BITMAP
00
00
00
04
08
00
3C
02
3E
42
42
3E
00
00
00
ENDCHAR
STARTCHAR U+00E2
ENCODING 226
SWIDTH 384 0
DWIDTH 8 0
BBX 8 15 0 -3
BITMAP
00
00
00
18
24
00
3C
02
3E
42
42
3E
00
00
00
ENDCHAR
STARTCHAR U+00E3
ENCODING 227
SWIDTH 384 0
DWIDTH 8 0
BBX 8 15 0 -3
BITMAP
00
00
00
32
4C
00
3C
02
3E
42
42
3E
00
00
00
ENDCHAR
STARTCHAR U+00E4
ENCODING 228
SWIDTH 384 0
DWIDTH 8 0
BBX 8 15 0 -3
BITMAP
00
00
00
24
24
00
3C
02
3E
42
42
3E
00
00
00
ENDCHAR
STARTCHAR U+00E5
ENCODING 229
SWIDTH 384 0
DWIDTH 8 0
BBX 8 15 0 -3
BITMAP
00
18
24
24
18
00
3C
02
3E
42
42
3E
00
00
00
ENDCHAR
STARTCHAR U+00E6
ENCODING 230
SWIDTH 384 0
DWIDTH 8 0
BBX 8 15 0 -3
BITMAP
00
00
00
00
00
00
36
09
3F
48
48
37
00
00
00
ENDCHAR
STARTCHAR U+00E7
ENCODING 231
SWIDTH 384 0
DWIDTH 8 0
BBX 8 15 0 -3
BITMAP
00
00
00
00
00
00
3C
42
40
40
42
3C
08
08
30
ENDCHAR
STARTCHAR U+00E8
ENCODING 232
SWIDTH 384 0
DWIDTH 8 0
BBX 8 15 0 -3
BITMAP
00
00
00
20
10
00
3C
42
7E
40
40
3E
00
00
00
ENDCHAR
STARTCHAR U+00E9
ENCODING 233
SWIDTH 384 0
DWIDTH 8 0
BBX 8 15 0 -3
BITMAP
00
00
00
04
08
00
3C
42
7E
40
40
3E
00
00
00
ENDCHAR
STARTCHAR U+00EA
ENCODING 234
SWIDTH 384 0
DWIDTH 8 0
BBX 8 15 0 -3
BITMAP
00
00
00
18
24
00
3C
42
7E
40
40
3E
00
00
00
ENDCHAR
STARTCHAR U+00EB
ENCODING 235
SWIDTH 384 0
DWIDTH 8 0
BBX 8 15 0 -3
BITMAP
00
00
00
24
24
00
3C
42
7E
40
40
3E
00
00
00
ENDCHAR
STARTCHAR U+00EC
ENCODING 236
SWIDTH 384 0
DWIDTH 8 0
BBX 8 15 0 -3
BITMAP
00
00
00
20
10
00
38
08
08
08
08
3E
00
00
00
ENDCHAR
STARTCHAR U+00ED
ENCODING 237
SWIDTH 384 0
DWIDTH 8 0
BBX 8 15 0 -3
BITMAP
00
00
00
04
08
00
38
08
08
08
08
3E
00
00
00
ENDCHAR
STARTCHAR U+00EE
ENCODING 238
SWIDTH 384 0
DWIDTH 8 0
BBX 8 15 0 -3
BITMAP
00
00
00
18
24
00
38
08
08
08
08
3E
00
00
00
ENDCHAR
STARTCHAR U+00EF
ENCODING 239
SWIDTH 384 0
DWIDTH 8 0
BBX 8 15 0 -3
BITMAP
00
00
00
24
24
00
38
08
08
08
08
3E
00
00
00
ENDCHAR
STARTCHAR U+00F0
ENCODING 240
SWIDTH 384 0
DWIDTH 8 0
BBX 8 15 0 -3
BITMAP
00
00
12
0C
38
04
3C
42
42
42
42
3C
00
00
00
ENDCHAR
STARTCHAR U+00F1
ENCODING 241
SWIDTH 384 0
DWIDTH 8 0
BBX 8 15 0 -3
BITMAP
00
00
00
32
4C
00
7C
42
42
42
42
42
00
00
00
ENDCHAR
STARTCHAR U+00F2
ENCODING 242
SWIDTH 384 0
DWIDTH 8 0
BBX 8 15 0 -3
BITMAP
00
00
00
20
10
00
3C
42
42
42
42
3C
00
00
00
ENDCHAR
STARTCHAR U+00F3
ENCODING 243
SWIDTH 384 0
DWIDTH 8 0
BBX 8 15 0 -3
BITMAP
00
00
00
04
08
00
3C
42
42
42
42
3C
00
00
00
ENDCHAR
STARTCHAR U+00F4
ENCODING 244
SWIDTH 384 0
DWIDTH 8 0
BBX 8 15 0 -3
BITMAP
00
00
00
18
24
00
3C
42
42
42
42
3C
00
00
00
ENDCHAR
STARTCHAR U+00F5
ENCODING 245
SWIDTH 384 0
DWIDTH 8 0
BBX 8 15 0 -3
BITMAP
00
00
00
32
4C
00
3C
42
42
42
42
3C
00
00
00
ENDCHAR
STARTCHAR U+00F6
ENCODING 246
SWIDTH 384 0
DWIDTH 8 0
BBX 8 15 0 -3
BITMAP
00
00
00
24
24
00
3C
42
42
42
42
3C
00
00
00
ENDCHAR
STARTCHAR U+00F7
ENCODING 247
SWIDTH 384 0
DWIDTH 8 0
BBX 8 15 0 -3
BITMAP
00
00
00
00
00
18
18
00
7E
00
18
18
00
00
00
ENDCHAR
STARTCHAR U+00F8
ENCODING 248
SWIDTH 384 0
DWIDTH 8 0
BBX 8 15 0 -3
BITMAP
00
00
00
00
00
02
3C
46
4A
52
62
3C
40
00
00
ENDCHAR
STARTCHAR U+00F9
ENCODING 249
SWIDTH 384 0
DWIDTH 8 0
BBX 8 15 0 -3
BITMAP
00
00
00
20
10
00
42
42
42
42
42
3E
00
00
00
ENDCHAR
STARTCHAR U+00FA
ENCODING 250
SWIDTH 384 0
DWIDTH 8 0
BBX 8 15 0 -3
BITMAP
00
00
00
04
08
00
42
42
42
42
42
3E
00
00
00
ENDCHAR
STARTCHAR U+00FB
ENCODING 251
SWIDTH 384 0
DWIDTH 8 0
BBX 8 15 0 -3
BITMAP
00
00
00
18
24
00
42
42
42
42
42
3E
00
00
00
ENDCHAR
STARTCHAR U+00FC
ENCODING 252
SWIDTH 384 0
DWIDTH 8 0
BBX 8 15 0 -3
BITMAP
00
00
00
24
24
00
42
42
42
42
42
3E
00
00
00
ENDCHAR
STARTCHAR U+00FD
ENCODING 253
SWIDTH 384 0
DWIDTH 8 0
BBX 8 15 0 -3
BITMAP
00
00
00
04
08
00
42
42
42
42
42
3E
02
02
3C
ENDCHAR
STARTCHAR U+00FE
ENCODING 254
SWIDTH 384 0
DWIDTH 8 0
BBX 8 15 0 -3
BITMAP
00
00
00
40
40
40
7C
42
42
42
42
7C
40
40
40
ENDCHAR
STARTCHAR U+00FF
ENCODING 255
SWIDTH 384 0
DWIDTH 8 0
BBX 8 15 0 -3
BITMAP
00
00
00
24
24
00
42
42
42
42
42
3E
02
02
3C
ENDCHAR
ENDFONT
